<svg xmlns="http://www.w3.org/2000/svg" xmlns:xlink="http://www.w3.org/1999/xlink" width="1000" zoomAndPan="magnify" viewBox="0 0 375 374.999991" height="1000" preserveAspectRatio="xMidYMid meet" version="1.0"><defs><g/><clipPath id="518292eb48"><path d="M 187.5 0 C 83.945312 0 0 83.945312 0 187.5 C 0 291.054688 83.945312 375 187.5 375 C 291.054688 375 375 291.054688 375 187.5 C 375 83.945312 291.054688 0 187.5 0 Z M 187.5 0 " clip-rule="nonzero"/></clipPath></defs><g clip-path="url(#518292eb48)"><rect x="-37.5" width="450" fill="#14213d" y="-37.499999" height="449.999989" fill-opacity="1"/></g><g fill="#fca311" fill-opacity="1"><g transform="translate(52.660434, 260.962006)"><g><path d="M 50.171875 2.390625 C 38.066406 2.390625 28.023438 -0.769531 20.046875 -7.09375 C 12.078125 -13.425781 8.09375 -22.863281 8.09375 -35.40625 C 8.09375 -44.863281 10.316406 -52.285156 14.765625 -57.671875 C 19.222656 -63.066406 25.066406 -67.015625 32.296875 -69.515625 C 39.535156 -72.023438 47.335938 -73.664062 55.703125 -74.4375 C 66.703125 -75.53125 74.566406 -76.679688 79.296875 -77.890625 C 84.023438 -79.109375 86.390625 -81.753906 86.390625 -85.828125 L 86.390625 -86.3125 C 86.390625 -91.539062 84.753906 -95.582031 81.484375 -98.4375 C 78.210938 -101.300781 73.578125 -102.734375 67.578125 -102.734375 C 61.253906 -102.734375 56.222656 -101.359375 52.484375 -98.609375 C 48.742188 -95.859375 46.269531 -92.363281 45.0625 -88.125 L 12.546875 -90.765625 C 14.960938 -102.316406 20.96875 -111.476562 30.5625 -118.25 C 40.164062 -125.019531 52.5625 -128.40625 67.75 -128.40625 C 77.15625 -128.40625 85.957031 -126.914062 94.15625 -123.9375 C 102.351562 -120.96875 108.96875 -116.332031 114 -110.03125 C 119.03125 -103.738281 121.546875 -95.554688 121.546875 -85.484375 L 121.546875 0 L 88.21875 0 L 88.21875 -17.578125 L 87.21875 -17.578125 C 84.144531 -11.691406 79.539062 -6.890625 73.40625 -3.171875 C 67.269531 0.535156 59.523438 2.390625 50.171875 2.390625 Z M 60.234375 -21.875 C 67.941406 -21.875 74.269531 -24.113281 79.21875 -28.59375 C 84.164062 -33.070312 86.640625 -38.640625 86.640625 -45.296875 L 86.640625 -58.75 C 85.265625 -57.8125 83.132812 -56.984375 80.25 -56.265625 C 77.363281 -55.554688 74.28125 -54.941406 71 -54.421875 C 67.726562 -53.898438 64.800781 -53.445312 62.21875 -53.0625 C 56.0625 -52.175781 51.097656 -50.441406 47.328125 -47.859375 C 43.554688 -45.273438 41.671875 -41.507812 41.671875 -36.5625 C 41.671875 -31.71875 43.414062 -28.054688 46.90625 -25.578125 C 50.40625 -23.109375 54.847656 -21.875 60.234375 -21.875 Z M 60.234375 -21.875 "/></g></g></g><g fill="#fca311" fill-opacity="1"><g transform="translate(187.496224, 260.962006)"><g><path d="M 50.171875 2.390625 C 38.066406 2.390625 28.023438 -0.769531 20.046875 -7.09375 C 12.078125 -13.425781 8.09375 -22.863281 8.09375 -35.40625 C 8.09375 -44.863281 10.316406 -52.285156 14.765625 -57.671875 C 19.222656 -63.066406 25.066406 -67.015625 32.296875 -69.515625 C 39.535156 -72.023438 47.335938 -73.664062 55.703125 -74.4375 C 66.703125 -75.53125 74.566406 -76.679688 79.296875 -77.890625 C 84.023438 -79.109375 86.390625 -81.753906 86.390625 -85.828125 L 86.390625 -86.3125 C 86.390625 -91.539062 84.753906 -95.582031 81.484375 -98.4375 C 78.210938 -101.300781 73.578125 -102.734375 67.578125 -102.734375 C 61.253906 -102.734375 56.222656 -101.359375 52.484375 -98.609375 C 48.742188 -95.859375 46.269531 -92.363281 45.0625 -88.125 L 12.546875 -90.765625 C 14.960938 -102.316406 20.96875 -111.476562 30.5625 -118.25 C 40.164062 -125.019531 52.5625 -128.40625 67.75 -128.40625 C 77.15625 -128.40625 85.957031 -126.914062 94.15625 -123.9375 C 102.351562 -120.96875 108.96875 -116.332031 114 -110.03125 C 119.03125 -103.738281 121.546875 -95.554688 121.546875 -85.484375 L 121.546875 0 L 88.21875 0 L 88.21875 -17.578125 L 87.21875 -17.578125 C 84.144531 -11.691406 79.539062 -6.890625 73.40625 -3.171875 C 67.269531 0.535156 59.523438 2.390625 50.171875 2.390625 Z M 60.234375 -21.875 C 67.941406 -21.875 74.269531 -24.113281 79.21875 -28.59375 C 84.164062 -33.070312 86.640625 -38.640625 86.640625 -45.296875 L 86.640625 -58.75 C 85.265625 -57.8125 83.132812 -56.984375 80.25 -56.265625 C 77.363281 -55.554688 74.28125 -54.941406 71 -54.421875 C 67.726562 -53.898438 64.800781 -53.445312 62.21875 -53.0625 C 56.0625 -52.175781 51.097656 -50.441406 47.328125 -47.859375 C 43.554688 -45.273438 41.671875 -41.507812 41.671875 -36.5625 C 41.671875 -31.71875 43.414062 -28.054688 46.90625 -25.578125 C 50.40625 -23.109375 54.847656 -21.875 60.234375 -21.875 Z M 60.234375 -21.875 "/></g></g></g></svg>